<svg width="22" height="22" viewBox="0 0 22 22" fill="none" xmlns="http://www.w3.org/2000/svg">
<path d="M18.3335 18.3333H3.66683C2.68647 18.3627 1.86688 17.5939 1.8335 16.6137V5.3854C1.86687 4.40531 2.68662 3.6368 3.66683 3.66665H18.3335C19.3137 3.6368 20.1335 4.40531 20.1668 5.3854V16.6146C20.133 17.5944 19.3135 18.3627 18.3335 18.3333ZM3.66683 5.49999V16.4899L18.3335 16.5V5.51007L3.66683 5.49999ZM12.311 14.6667H5.50016C5.56756 13.9077 5.92673 13.2045 6.50208 12.705C7.14267 12.0695 8.00341 11.7051 8.90558 11.6875C9.80775 11.7051 10.6685 12.0695 11.3091 12.705C11.8843 13.2046 12.2434 13.9078 12.311 14.6667ZM16.5002 13.75H13.7502V11.9167H16.5002V13.75ZM8.90558 11C8.41431 11.0171 7.93801 10.8294 7.59043 10.4818C7.24284 10.1342 7.05517 9.65792 7.07225 9.16666C7.05545 8.67547 7.24321 8.19933 7.59073 7.8518C7.93825 7.50428 8.41439 7.31652 8.90558 7.33332C9.39677 7.31652 9.8729 7.50428 10.2204 7.8518C10.568 8.19933 10.7557 8.67547 10.7389 9.16666C10.756 9.65792 10.5683 10.1342 10.2207 10.4818C9.87315 10.8294 9.39684 11.0171 8.90558 11ZM16.5002 10.0833H12.8335V8.24999H16.5002V10.0833Z" fill="#5C5C5C"/>
</svg>
