<svg width="22" height="22" viewBox="0 0 22 22" fill="none" xmlns="http://www.w3.org/2000/svg">
<path d="M8.25 8.25H6.41667V10.0833H8.25V8.25Z" fill="#5C5C5C"/>
<path d="M10.0833 8.25H11.9167V10.0833H10.0833V8.25Z" fill="#5C5C5C"/>
<path d="M15.5833 8.25H13.75V10.0833H15.5833V8.25Z" fill="#5C5C5C"/>
<path d="M2.75 4.58333V19.25L7.15 15.95C7.467 15.7113 7.8532 15.5826 8.25 15.5833H17.4167C18.4292 15.5833 19.25 14.7625 19.25 13.75V4.58333C19.25 3.57081 18.4292 2.75 17.4167 2.75H4.58333C3.57081 2.75 2.75 3.57081 2.75 4.58333ZM4.58333 15.5833V4.58333H17.4167V13.75H7.6395C7.24265 13.7489 6.85634 13.8777 6.5395 14.1167L4.58333 15.5833Z" fill="#5C5C5C"/>
</svg>
