<svg width="22" height="22" viewBox="0 0 22 22" fill="none" xmlns="http://www.w3.org/2000/svg">
<path d="M17.4167 20.1667H4.58341C4.07715 20.1667 3.66675 19.7563 3.66675 19.25V10.4628C3.66675 10.2197 3.76341 9.98661 3.93533 9.81474L10.352 3.39807C10.5239 3.22594 10.7572 3.12923 11.0005 3.12923C11.2438 3.12923 11.4771 3.22594 11.6491 3.39807L18.0657 9.81474C18.2378 9.98641 18.3342 10.2197 18.3334 10.4628V19.25C18.3334 19.7563 17.923 20.1667 17.4167 20.1667ZM9.16675 13.75H12.8334V18.3333H16.5001V10.8423L11.0001 5.34232L5.50008 10.8423V18.3333H9.16675V13.75Z" fill="#5C5C5C"/>
</svg>
