<svg width="22" height="22" viewBox="0 0 22 22" fill="none" xmlns="http://www.w3.org/2000/svg">
<path d="M13.7499 20.1667H8.24992V18.3333H13.7499V20.1667ZM13.7499 17.4167H8.24992L8.0455 15.5833C7.93553 14.9769 7.75367 14.3858 7.50375 13.8224C7.17925 13.3641 6.841 12.9727 6.51375 12.5904C5.31119 11.4632 4.61502 9.89796 4.58325 8.25C4.58325 4.70617 7.45609 1.83333 10.9999 1.83333C14.5437 1.83333 17.4166 4.70617 17.4166 8.25C17.3793 9.8879 16.6885 11.4428 15.498 12.5684L15.4824 12.5867C15.1561 12.969 14.8188 13.365 14.5007 13.8187C14.251 14.3836 14.0685 14.9759 13.9571 15.5833L13.7499 17.4167ZM10.9999 3.66667C8.46987 3.6697 6.41962 5.71995 6.41659 8.25C6.41659 9.66533 7.00692 10.3519 7.89975 11.3923C8.23892 11.7883 8.62392 12.2357 8.99975 12.7591C9.45586 13.6453 9.76748 14.5988 9.92284 15.5833H12.0779C12.2373 14.6016 12.5484 13.6507 13.0001 12.7646C13.3668 12.2412 13.7508 11.7911 14.0891 11.3951L14.1028 11.3786C14.9938 10.3336 15.5833 9.64333 15.5833 8.25C15.5802 5.71995 13.53 3.6697 10.9999 3.66667Z" fill="#5C5C5C"/>
</svg>
