<svg width="36" height="25" viewBox="0 0 36 25" fill="none" xmlns="http://www.w3.org/2000/svg">
<g clip-path="url(#clip0)">
<path d="M35.8622 2.14867C35.7653 1.04803 35.1769 0.17079 34.4276 0C31.1434 0 4.87072 0 1.58656 0C0.765825 0.187179 0.137695 1.22141 0.137695 2.46783C0.137695 4.47159 0.137695 20.4982 0.137695 22.5011C0.137695 23.8812 0.906238 25 1.85496 25C5.08507 25 30.9291 25 34.1592 25C35.0327 25 35.7541 24.0503 35.8622 22.8211C35.8622 18.6868 35.8622 4.2154 35.8622 2.14867Z" fill="#5C5C5C"/>
<path d="M4.44727 5.02372H7.28229V20.1747H4.44727V5.02372Z" fill="#232323"/>
<path d="M12.6375 12.0025C12.3939 9.69337 12.2585 8.40988 12.2318 8.1537C12.1131 6.91765 12 5.84203 11.8919 4.92426C11.6465 4.92426 10.4219 4.92426 8.21631 4.92426V20.0752H10.6996L10.7083 10.0712L11.7534 20.0752H13.5222L14.5132 9.84863L14.5225 20.0752H16.9977V4.92426H13.2942L12.6375 12.0025Z" fill="#232323"/>
<path d="M21.6782 8.07607C21.7093 8.26928 21.7254 8.70746 21.7254 9.39234C21.7254 9.97974 21.7254 14.679 21.7254 15.2664C21.7254 16.2747 21.6782 16.8923 21.5844 17.12C21.4899 17.3478 21.2389 17.4608 20.832 17.4608C20.832 16.4662 20.832 8.50994 20.832 7.5154C21.1408 7.5154 21.3514 7.56112 21.4632 7.65082C21.5751 7.74139 21.6471 7.88285 21.6782 8.07607ZM22.9587 19.9208C23.296 19.8181 23.5793 19.637 23.8092 19.3791C24.0385 19.1203 24.1994 18.7624 24.2913 18.3043C24.3839 17.8472 24.4386 16.9389 24.4386 15.5804C24.4386 15.049 24.4386 10.7923 24.4386 10.2601C24.4386 8.8265 24.3982 7.8656 24.3355 7.37739C24.2721 6.88832 24.1149 6.4441 23.8633 6.04559C23.611 5.64709 23.2432 5.36072 22.7599 5.18648C22.2759 5.01224 21.4868 4.92426 20.1144 4.92426C19.9734 4.92426 19.2688 4.92426 17.9995 4.92426V20.0752H21.434C22.2255 20.0407 22.7338 19.9898 22.9587 19.9208Z" fill="#232323"/>
<path d="M29.0137 17.657C28.9616 17.8494 28.7329 17.9468 28.5602 17.9468C28.3912 17.9468 28.2788 17.8537 28.2216 17.6665C28.1644 17.4802 28.1365 17.0549 28.1365 16.389C28.1365 15.9888 28.1365 12.7853 28.1365 12.3851C28.1365 11.695 28.1613 11.2646 28.2117 11.0929C28.2614 10.923 28.3707 10.8368 28.5397 10.8368C28.7124 10.8368 28.9442 10.9342 29.0038 11.13C29.0628 11.3258 29.0926 11.7442 29.0926 12.3851C29.0926 12.6438 29.0926 13.9377 29.0926 16.2674C29.0746 17.0653 29.0485 17.5285 29.0137 17.657ZM25.4053 19.9436H27.9575C28.0638 19.3649 28.1222 19.0431 28.134 18.9784C28.3651 19.3666 28.6192 19.6581 28.8982 19.8513C29.1759 20.0454 29.5915 20.142 29.9134 20.142C30.3613 20.142 30.7478 19.979 31.0739 19.6521C31.3995 19.326 31.607 18.9396 31.6952 18.4954C31.7835 18.0503 31.8276 17.3741 31.8276 16.4649C31.8276 16.0397 31.8276 12.6395 31.8276 12.2143C31.8276 11.3 31.8127 10.7031 31.7835 10.4227C31.7543 10.1424 31.6673 9.8569 31.5225 9.56449C31.3778 9.27209 31.1671 9.04524 30.8913 8.88308C30.6154 8.72091 30.2899 8.63983 29.9146 8.63983C29.5884 8.63983 29.1709 8.7304 28.8926 8.90895C28.6149 9.0875 28.3626 9.35834 28.1365 9.72148C28.1365 9.39285 28.1365 7.75054 28.1365 4.79283H25.4053V19.9436Z" fill="#232323"/>
</g>
<defs>
<clipPath id="clip0">
<path d="M0.137695 3C0.137695 1.34315 1.48084 0 3.1377 0H32.8622C34.519 0 35.8622 1.34315 35.8622 3V22C35.8622 23.6569 34.519 25 32.8622 25H3.1377C1.48084 25 0.137695 23.6569 0.137695 22V3Z" fill="white"/>
</clipPath>
</defs>
</svg>
