<svg width="22" height="22" viewBox="0 0 22 22" fill="none" xmlns="http://www.w3.org/2000/svg">
<path d="M11 20.1667C9.61406 20.1706 8.24563 19.857 6.99968 19.25C6.54368 19.0282 6.10678 18.7691 5.69343 18.4754L5.56784 18.3837C4.43101 17.5446 3.50156 16.4562 2.85084 15.202C2.17777 13.9039 1.82868 12.4622 1.8333 11C1.8333 5.93739 5.9374 1.83333 11 1.83333C16.0626 1.83333 20.1667 5.93739 20.1667 11C20.1713 12.4615 19.8225 13.9025 19.1501 15.2002C18.5003 16.4536 17.5721 17.5417 16.4368 18.381C16.0085 18.6945 15.5539 18.9705 15.0783 19.206L15.0049 19.2427C13.7582 19.8529 12.3881 20.169 11 20.1667ZM11 15.5833C9.62636 15.5806 8.36703 16.3479 7.73943 17.5697C9.79404 18.5874 12.206 18.5874 14.2606 17.5697V17.5652C13.6322 16.3446 12.3728 15.5791 11 15.5833ZM11 13.75C12.9856 13.7526 14.8165 14.8226 15.7933 16.5513L15.807 16.5394L15.8198 16.5284L15.8043 16.5422L15.7951 16.5495C18.1133 14.5467 18.9423 11.3138 17.8738 8.4426C16.8053 5.57139 14.0645 3.66695 11.0009 3.66695C7.93734 3.66695 5.19659 5.57139 4.12808 8.4426C3.05958 11.3138 3.88851 14.5467 6.20676 16.5495C7.18416 14.8216 9.01484 13.7524 11 13.75ZM11 12.8333C8.97497 12.8333 7.33334 11.1917 7.33334 9.16667C7.33334 7.14162 8.97497 5.5 11 5.5C13.0251 5.5 14.6667 7.14162 14.6667 9.16667C14.6667 10.1391 14.2804 11.0718 13.5927 11.7594C12.9051 12.447 11.9725 12.8333 11 12.8333ZM11 7.33333C9.98749 7.33333 9.16668 8.15414 9.16668 9.16667C9.16668 10.1792 9.98749 11 11 11C12.0125 11 12.8333 10.1792 12.8333 9.16667C12.8333 8.15414 12.0125 7.33333 11 7.33333Z" fill="#5C5C5C"/>
</svg>
