<svg width="24" height="24" viewBox="0 0 24 24" fill="none" xmlns="http://www.w3.org/2000/svg">
<path d="M19.995 6.688C20.8914 6.15209 21.5622 5.30824 21.882 4.314C21.0397 4.8138 20.118 5.16588 19.157 5.355C17.8246 3.94553 15.7135 3.60253 14.0034 4.51766C12.2933 5.43279 11.4075 7.37949 11.841 9.27C8.39062 9.09677 5.17598 7.46692 2.99702 4.786C1.85986 6.74742 2.44097 9.25478 4.32502 10.516C3.64373 10.4941 2.97754 10.3096 2.38202 9.978C2.38202 9.996 2.38202 10.014 2.38202 10.032C2.38241 12.0752 3.82239 13.8351 5.82502 14.24C5.19308 14.4119 4.53022 14.4372 3.88702 14.314C4.45022 16.0613 6.06057 17.2583 7.89602 17.294C6.37585 18.4871 4.49849 19.1342 2.56602 19.131C2.22349 19.1315 1.88123 19.1118 1.54102 19.072C3.50341 20.333 5.78738 21.0024 8.12002 21C11.3653 21.0223 14.484 19.7429 16.7787 17.448C19.0734 15.1531 20.3526 12.0342 20.33 8.789C20.33 8.603 20.3257 8.418 20.317 8.234C21.1575 7.6266 21.8828 6.87415 22.459 6.012C21.676 6.35906 20.8455 6.58692 19.995 6.688Z" fill="#5C5C5C"/>
</svg>
