<svg width="22" height="22" viewBox="0 0 22 22" fill="none" xmlns="http://www.w3.org/2000/svg">
<path d="M17.4167 19.25H4.58333C3.57081 19.25 2.75 18.4292 2.75 17.4167V4.58333C2.75 3.57081 3.57081 2.75 4.58333 2.75H17.4167C18.4292 2.75 19.25 3.57081 19.25 4.58333V17.4167C19.25 18.4292 18.4292 19.25 17.4167 19.25ZM4.58333 4.58333V17.4167H17.4167V4.58333H4.58333ZM16.5 15.5833H5.5L8.25 11.9167L9.16667 12.8333L11.9167 9.16667L16.5 15.5833ZM7.79167 10.0833C7.03228 10.0833 6.41667 9.46772 6.41667 8.70833C6.41667 7.94894 7.03228 7.33333 7.79167 7.33333C8.55106 7.33333 9.16667 7.94894 9.16667 8.70833C9.16667 9.46772 8.55106 10.0833 7.79167 10.0833Z" fill="#E50A0F"/>
</svg>
