<svg width="22" height="22" viewBox="0 0 22 22" fill="none" xmlns="http://www.w3.org/2000/svg">
<path d="M4.05166 18.8641C3.79452 18.8636 3.54939 18.7552 3.37608 18.5652C3.19957 18.3768 3.11186 18.122 3.13499 17.8649L3.35958 15.3954L13.7344 5.02422L16.9767 8.26555L6.60458 18.6358L4.13508 18.8604C4.10666 18.8631 4.07824 18.8641 4.05166 18.8641ZM17.6238 7.61747L14.3825 4.37614L16.3267 2.43189C16.4987 2.25976 16.732 2.16304 16.9753 2.16304C17.2186 2.16304 17.4519 2.25976 17.6238 2.43189L19.5681 4.37614C19.7402 4.54807 19.8369 4.78139 19.8369 5.02468C19.8369 5.26797 19.7402 5.50128 19.5681 5.67322L17.6247 7.61655L17.6238 7.61747Z" fill="#E50A0F"/>
</svg>
