<svg width="48" height="48" viewBox="0 0 48 48" fill="none" xmlns="http://www.w3.org/2000/svg">
<path d="M8.83999 41.1579C8.27895 41.157 7.74412 40.9204 7.36599 40.5059C6.98088 40.0949 6.78952 39.539 6.83999 38.9779L7.32999 33.5899L29.966 10.9619L37.04 18.0339L14.41 40.6599L9.02199 41.1499C8.95999 41.1559 8.89799 41.1579 8.83999 41.1579ZM38.452 16.6199L31.38 9.54795L35.622 5.30595C35.9971 4.93039 36.5062 4.71938 37.037 4.71938C37.5678 4.71938 38.0768 4.93039 38.452 5.30595L42.694 9.54795C43.0695 9.92308 43.2806 10.4321 43.2806 10.9629C43.2806 11.4938 43.0695 12.0028 42.694 12.3779L38.454 16.6179L38.452 16.6199Z" fill="#E50A0F"/>
</svg>
