<svg width="48" height="48" viewBox="0 0 48 48" fill="none" xmlns="http://www.w3.org/2000/svg">
<path d="M36 44H12C9.79086 44 8 42.2091 8 40V8C8 5.79086 9.79086 4 12 4H26C26.0218 4.00094 26.0433 4.00499 26.064 4.012C26.0835 4.01803 26.1036 4.02206 26.124 4.024C26.3004 4.03531 26.4745 4.0696 26.642 4.126L26.698 4.144C26.7433 4.15936 26.7875 4.17808 26.83 4.2C27.0479 4.29685 27.2464 4.43237 27.416 4.6L39.416 16.6C39.5836 16.7696 39.7192 16.9681 39.816 17.186C39.836 17.23 39.85 17.276 39.866 17.322L39.884 17.374C39.9398 17.5408 39.9728 17.7144 39.982 17.89C39.9851 17.9084 39.9898 17.9264 39.996 17.944C39.9995 17.9624 40.0009 17.9812 40.0003 18V40C40.0003 42.2091 38.2091 44 36 44ZM12 8V40H36V20H26C24.8954 20 24 19.1046 24 18V8H12ZM28 10.828V16H33.172L28 10.828Z" fill="#E50A0F"/>
</svg>
