<svg width="36" height="25" viewBox="0 0 36 25" fill="none" xmlns="http://www.w3.org/2000/svg">
<path d="M35.7245 2.14867C35.6276 1.04803 35.0392 0.17079 34.2899 0C31.0057 0 4.73303 0 1.44886 0C0.628129 0.187179 0 1.22141 0 2.46783C0 4.47159 0 20.4982 0 22.5011C0 23.8812 0.768542 25 1.71726 25C4.94737 25 30.7914 25 34.0215 25C34.8951 25 35.6164 24.0503 35.7245 22.8211C35.7245 18.6868 35.7245 4.2154 35.7245 2.14867Z" fill="#A4A4A4"/>
<path d="M4.30957 5.02372H7.14459V20.1747H4.30957V5.02372Z" fill="#131313"/>
<path d="M12.4998 12.0025C12.2562 9.69337 12.1208 8.40988 12.0941 8.1537C11.9754 6.91765 11.8623 5.84203 11.7542 4.92426C11.5088 4.92426 10.2842 4.92426 8.07861 4.92426V20.0752H10.5619L10.5706 10.0712L11.6157 20.0752H13.3845L14.3755 9.84863L14.3848 20.0752H16.86V4.92426H13.1565L12.4998 12.0025Z" fill="#131313"/>
<path d="M21.5405 8.07607C21.5716 8.26928 21.5877 8.70746 21.5877 9.39234C21.5877 9.97974 21.5877 14.679 21.5877 15.2664C21.5877 16.2747 21.5405 16.8923 21.4467 17.12C21.3522 17.3478 21.1012 17.4608 20.6943 17.4608C20.6943 16.4662 20.6943 8.50994 20.6943 7.5154C21.0031 7.5154 21.2137 7.56112 21.3255 7.65082C21.4374 7.74139 21.5094 7.88285 21.5405 8.07607ZM22.821 19.9208C23.1583 19.8181 23.4417 19.637 23.6715 19.3791C23.9008 19.1203 24.0617 18.7624 24.1537 18.3043C24.2462 17.8472 24.3009 16.9389 24.3009 15.5804C24.3009 15.049 24.3009 10.7923 24.3009 10.2601C24.3009 8.8265 24.2605 7.8656 24.1978 7.37739C24.1344 6.88832 23.9772 6.4441 23.7256 6.04559C23.4733 5.64709 23.1055 5.36072 22.6222 5.18648C22.1382 5.01224 21.3491 4.92426 19.9767 4.92426C19.8357 4.92426 19.1311 4.92426 17.8618 4.92426V20.0752H21.2963C22.0879 20.0407 22.5961 19.9898 22.821 19.9208Z" fill="#131313"/>
<path d="M28.876 17.657C28.8239 17.8493 28.5952 17.9468 28.4225 17.9468C28.2535 17.9468 28.1411 17.8537 28.0839 17.6665C28.0267 17.4802 27.9988 17.0549 27.9988 16.389C27.9988 15.9888 27.9988 12.7853 27.9988 12.3851C27.9988 11.695 28.0236 11.2646 28.074 11.0929C28.1237 10.923 28.233 10.8368 28.402 10.8368C28.5747 10.8368 28.8065 10.9342 28.8661 11.13C28.9251 11.3258 28.9549 11.7442 28.9549 12.3851C28.9549 12.6438 28.9549 13.9377 28.9549 16.2674C28.9369 17.0653 28.9108 17.5285 28.876 17.657ZM25.2676 19.9436H27.8198C27.9261 19.3649 27.9845 19.0431 27.9963 18.9784C28.2274 19.3666 28.4815 19.6581 28.7605 19.8513C29.0382 20.0454 29.4538 20.142 29.7757 20.142C30.2236 20.142 30.6101 19.979 30.9362 19.6521C31.2618 19.326 31.4693 18.9396 31.5575 18.4954C31.6458 18.0503 31.6899 17.3741 31.6899 16.4649C31.6899 16.0397 31.6899 12.6395 31.6899 12.2143C31.6899 11.3 31.675 10.7031 31.6458 10.4227C31.6166 10.1424 31.5296 9.8569 31.3848 9.56449C31.2401 9.27208 31.0294 9.04523 30.7536 8.88307C30.4777 8.72091 30.1522 8.63983 29.7769 8.63983C29.4507 8.63983 29.0332 8.7304 28.7549 8.90895C28.4772 9.0875 28.2249 9.35834 27.9988 9.72148C27.9988 9.39284 27.9988 7.75053 27.9988 4.79283H25.2676V19.9436Z" fill="#131313"/>
</svg>
