<svg width="48" height="48" viewBox="0 0 48 48" fill="none" xmlns="http://www.w3.org/2000/svg">
<path d="M40 39.9999H8C5.86103 40.064 4.07283 38.3866 4 36.2479V11.7499C4.07283 9.61156 5.86137 7.9348 8 7.99994H40C42.1386 7.9348 43.9272 9.61156 44 11.7499V36.2499C43.9261 38.3878 42.1382 40.064 40 39.9999ZM8 11.9999V35.9779L40 35.9999V12.0219L8 11.9999ZM26.86 31.9999H12C12.1471 30.3441 12.9307 28.8098 14.186 27.7199C15.5837 26.3334 17.4616 25.5384 19.43 25.4999C21.3984 25.5384 23.2764 26.3334 24.674 27.7199C25.929 28.81 26.7125 30.3442 26.86 31.9999ZM36 29.9999H30V25.9999H36V29.9999ZM19.43 23.9999C18.3582 24.0372 17.319 23.6277 16.5606 22.8694C15.8022 22.111 15.3928 21.0718 15.43 19.9999C15.3934 18.9283 15.803 17.8894 16.5612 17.1312C17.3195 16.3729 18.3583 15.9633 19.43 15.9999C20.5017 15.9633 21.5405 16.3729 22.2988 17.1312C23.057 17.8894 23.4667 18.9283 23.43 19.9999C23.4673 21.0718 23.0578 22.111 22.2994 22.8694C21.5411 23.6277 20.5019 24.0372 19.43 23.9999ZM36 21.9999H28V17.9999H36V21.9999Z" fill="#E50A0F"/>
</svg>
