<svg width="48" height="48" viewBox="0 0 48 48" fill="none" xmlns="http://www.w3.org/2000/svg">
<path d="M30 44H18V40H30V44ZM30 38H18L17.554 34C17.3141 32.6769 16.9173 31.3871 16.372 30.158C15.664 29.158 14.926 28.304 14.212 27.47C11.5882 25.0106 10.0693 21.5955 10 18C10 10.268 16.268 4 24 4C31.732 4 38 10.268 38 18C37.9186 21.5736 36.4114 24.9662 33.814 27.422L33.78 27.462C33.068 28.296 32.332 29.16 31.638 30.15C31.0932 31.3824 30.6952 32.6746 30.452 34L30 38ZM24 8C18.4799 8.00661 14.0066 12.4799 14 18C14 21.088 15.288 22.586 17.236 24.856C17.976 25.72 18.816 26.696 19.636 27.838C20.6311 29.7717 21.311 31.8519 21.65 34H26.352C26.6997 31.8581 27.3785 29.7833 28.364 27.85C29.164 26.708 30.002 25.726 30.74 24.862L30.77 24.826C32.714 22.546 34 21.04 34 18C33.9934 12.4799 29.5201 8.00661 24 8Z" fill="#E50A0F"/>
</svg>
