<svg width="30" height="30" viewBox="0 0 30 30" fill="none" xmlns="http://www.w3.org/2000/svg">
<path d="M5.52499 25.7237C5.17435 25.7231 4.84008 25.5753 4.60374 25.3162C4.36305 25.0593 4.24345 24.7119 4.27499 24.3612L4.58124 20.9937L18.7287 6.85122L23.15 11.2712L9.00624 25.4125L5.63874 25.7187C5.59999 25.7225 5.56124 25.7237 5.52499 25.7237ZM24.0325 10.3875L19.6125 5.96747L22.2637 3.31622C22.4982 3.08149 22.8164 2.94961 23.1481 2.94961C23.4799 2.94961 23.798 3.08149 24.0325 3.31622L26.6837 5.96747C26.9185 6.20193 27.0504 6.52008 27.0504 6.85184C27.0504 7.1836 26.9185 7.50176 26.6837 7.73622L24.0337 10.3862L24.0325 10.3875Z" fill="#E50A0F"/>
</svg>
